<?xml version="1.0" encoding="utf-8"?>
<!-- Generator: Adobe Illustrator 19.0.0, SVG Export Plug-In . SVG Version: 6.00 Build 0)  -->
<svg version="1.1" id="圖層_1" xmlns="http://www.w3.org/2000/svg" xmlns:xlink="http://www.w3.org/1999/xlink" x="0px" y="0px"
	 viewBox="179 -73.3 1200 387.5" style="enable-background:new 179 -73.3 1200 387.5;" xml:space="preserve">
<style type="text/css">
	.st0{fill:#FFFFFF;}
	.st1{fill:#EBEBEB;}
	.st2{fill:#C5C5C6;}
	.st3{fill:#C5C5C5;}
	.st4{fill:#C4C4C4;}
	.st5{fill:#C3C3C3;}
	.st6{fill:#C2C2C2;}
	.st7{fill:#C1C1C1;}
	.st8{fill:#C0C0C0;}
	.st9{fill:#BFBFBF;}
	.st10{fill:#BEBEBE;}
	.st11{fill:#BDBDBD;}
	.st12{fill:#BCBCBC;}
	.st13{fill:#BBBBBB;}
	.st14{fill:#BABABA;}
	.st15{fill:#B9B9B9;}
	.st16{fill:#B8B8B8;}
	.st17{fill:#B7B7B7;}
	.st18{fill:#B6B6B6;}
	.st19{fill:#B5B5B5;}
	.st20{fill:#B4B4B4;}
	.st21{fill:#B3B3B3;}
	.st22{fill:#B2B2B2;}
	.st23{fill:#B1B1B1;}
	.st24{fill:#B0B0B0;}
	.st25{fill:#AFAFAF;}
	.st26{fill:#AEAEAE;}
	.st27{fill:#ADADAD;}
	.st28{fill:#ACACAC;}
	.st29{fill:#ABABAB;}
</style>
<polygon id="XMLID_1_" class="st0" points="1379,-73.3 1379,78.5 179,248.2 179,1.8 "/>
<polygon id="XMLID_2_" class="st0" points="1379,1.8 1379,248.2 179,78.5 179,-73.3 "/>
<polygon class="st1" points="779.5,-12.2 779.5,-12 179,-51.3 179,305.2 779.5,269.3 1379,305.2 1379,-51.3 "/>
<polygon class="st2" points="784.4,304.4 569.5,282.2 784.4,257.3 998.8,282.2 "/>
<g>
	<g>
		<polygon class="st3" points="782.7,280.3 781.2,282.4 795.6,282.4 785.4,295.2 773.2,295.2 771.5,297.2 786.4,297.2 798.3,282.4 
			803.2,282.4 804.9,280.3 		"/>
		<path class="st4" d="M782.7,279.9c-0.2,0-1.8,2-1.8,2h14.5l-10.2,12.8c0,0-12,0-12.2,0c-0.1,0-1.9,2-1.9,2H786l11.9-14.8h5l1.7-2
			C804.7,279.9,782.7,279.9,782.7,279.9z"/>
		<path class="st5" d="M782.5,279.6c-0.4,0-1.9,2-1.9,2h14.6L785,294.4c0,0-11.8,0-12,0s-2,2-2,2h14.9l11.9-14.8h5l1.7-2
			C804.4,279.6,782.8,279.6,782.5,279.6z"/>
		<path class="st6" d="M782.4,279.1c-0.5,0-2,2-2,2h14.6l-10.2,12.8c0,0-11.5,0-11.9,0c-0.4,0-2,2-2,2h14.9l11.9-14.8h5l1.7-2
			C804.1,279.1,782.9,279.1,782.4,279.1z"/>
		<path class="st7" d="M782.3,278.8c-0.7,0-2.2,2-2.2,2h14.6l-10.2,12.8c0,0-11.4,0-11.8,0c-0.4,0-2.2,2-2.2,2h14.9l11.9-14.8h5
			l1.7-2C803.9,278.8,783,278.8,782.3,278.8z"/>
		<path class="st8" d="M782.2,278.4c-0.9,0-2.4,2-2.4,2h14.6l-10.2,12.8c0,0-11.1,0-11.6,0s-2.3,2-2.3,2h14.9l11.9-14.8h5l1.7-2
			C803.6,278.4,783.1,278.4,782.2,278.4z"/>
		<path class="st9" d="M782.1,278.1c-1.1,0-2.6,2-2.6,2h14.6L783.8,293c0,0-10.9,0-11.5,0s-2.4,2-2.4,2h14.9l11.9-14.8h5l1.7-2
			C803.3,278.1,783.2,278.1,782.1,278.1z"/>
		<path class="st10" d="M782,277.6c-1.2,0-2.8,2-2.8,2h14.6l-10.2,12.8c0,0-10.6,0-11.4,0c-0.8,0-2.6,2-2.6,2h14.9l11.9-14.8h5
			l1.7-2C803.1,277.6,783.3,277.6,782,277.6z"/>
		<path class="st11" d="M782,277.3c-1.4,0-2.8,2-2.8,2h14.5l-10.2,12.8c0,0-10.4,0-11.3,0s-2.7,2-2.7,2h14.9l11.9-14.8h5l1.7-2
			C802.8,277.3,783.3,277.3,782,277.3z"/>
		<path class="st12" d="M781.8,276.9c-1.6,0-3,2-3,2h14.6l-10.2,12.8c0,0-10.2,0-11.2,0c-1,0-2.8,2-2.8,2h14.9l11.9-14.8h5l1.7-2
			C802.5,276.9,783.4,276.9,781.8,276.9z"/>
		<path class="st13" d="M781.7,276.5c-1.8,0-3.2,2-3.2,2H793l-10.2,12.8c0,0-9.9,0-11,0s-2.9,2-2.9,2h14.9l11.9-14.8h5l1.7-2
			C802.3,276.5,783.5,276.5,781.7,276.5z"/>
		<path class="st14" d="M781.6,276.2c-2,0-3.4,2-3.4,2h14.6L782.6,291c0,0-9.8,0-10.9,0s-3,2-3,2h14.9l11.9-14.8h5l1.7-2
			C802.1,276.2,783.5,276.2,781.6,276.2z"/>
		<path class="st15" d="M781.5,275.7c-2.1,0-3.5,2-3.5,2h14.6l-10.2,12.8c0,0-9.5,0-10.8,0c-1.3,0-3.2,2-3.2,2h14.9l11.9-14.8h5
			l1.7-2C801.8,275.7,783.6,275.7,781.5,275.7z"/>
		<path class="st16" d="M781.4,275.4c-2.3,0-3.6,2-3.6,2h14.6L782,290.3c0,0-9.3,0-10.6,0c-1.4,0-3.3,2-3.3,2H783l11.9-14.8h5l1.7-2
			C801.6,275.4,783.7,275.4,781.4,275.4z"/>
		<path class="st17" d="M781.3,275c-2.5,0-3.8,2-3.8,2h14.6l-10.2,12.8c0,0-9.1,0-10.6,0c-1.5,0-3.4,2-3.4,2h14.9l11.9-14.8h5l1.7-2
			C801.3,275,783.7,275,781.3,275z"/>
		<path class="st17" d="M781.2,274.7c-2.7,0-4,2-4,2h14.6l-10.2,12.8c0,0-8.9,0-10.5,0s-3.5,2-3.5,2h14.9l11.9-14.8h5l1.7-2
			C801,274.7,783.8,274.7,781.2,274.7z"/>
		<path class="st18" d="M781.1,274.2c-2.8,0-4.2,2-4.2,2h14.6l-10.2,12.8c0,0-8.6,0-10.3,0s-3.6,2-3.6,2h14.9l11.9-14.8h5l1.7-2
			C800.8,274.2,783.9,274.2,781.1,274.2z"/>
		<path class="st19" d="M781,273.9c-3,0-4.3,2-4.3,2h14.6L781,288.7c0,0-8.3,0-10.2,0c-1.9,0-3.7,2-3.7,2H782l11.9-14.8h5l1.7-2
			C800.5,273.9,784,273.9,781,273.9z"/>
		<path class="st20" d="M780.9,273.5c-3.2,0-4.5,2-4.5,2h14.6l-10.2,12.9c0,0-8.2,0-10.1,0c-2,0-3.9,2-3.9,2h14.9l11.9-14.8h5l1.7-2
			C800.2,273.5,784.1,273.5,780.9,273.5z"/>
		<path class="st21" d="M780.8,273.2c-3.4,0-4.6,2-4.6,2h14.6L780.5,288c0,0-7.9,0-9.9,0s-4,2-4,2h14.9l11.9-14.8h5l1.7-2
			C800,273.2,784.2,273.2,780.8,273.2z"/>
		<path class="st22" d="M780.7,272.7c-3.5,0-4.8,2-4.8,2h14.6l-10.2,12.8c0,0-7.7,0-9.8,0c-2.1,0-4.1,2-4.1,2h14.8l11.9-14.8h5
			l1.7-2C799.7,272.7,784.2,272.7,780.7,272.7z"/>
		<path class="st23" d="M780.6,272.4c-3.7,0-5,2-5,2h14.6L780,287.2c0,0-7.5,0-9.8,0s-4.3,2-4.3,2h14.9l11.9-14.8h5l1.7-2
			C799.4,272.4,784.3,272.4,780.6,272.4z"/>
		<path class="st24" d="M780.5,272c-3.9,0-5.1,2-5.1,2h14.6l-10.2,12.8c0,0-7.3,0-9.6,0c-2.4,0-4.3,2-4.3,2h14.9l11.9-14.8h5l1.7-2
			C799.2,272,784.3,272,780.5,272z"/>
		<path class="st25" d="M780.4,271.7c-4.1,0-5.3,2-5.3,2h14.6l-10.2,12.8c0,0-7,0-9.5,0c-2.5,0-4.4,2-4.4,2h14.9l11.9-14.8h5l1.7-2
			C798.9,271.7,784.4,271.7,780.4,271.7z"/>
		<path class="st26" d="M780.3,271.2c-4.3,0-5.5,2-5.5,2h14.6L779.1,286c0,0-6.7,0-9.4,0c-2.6,0-4.6,2-4.6,2H780l11.9-14.8h5l1.7-2
			C798.6,271.2,784.5,271.2,780.3,271.2z"/>
		<path class="st27" d="M780.2,270.9c-4.4,0-5.6,2-5.6,2h14.6l-10.3,12.9c0,0-6.6,0-9.2,0c-2.7,0-4.7,2-4.7,2h14.9l11.9-14.8h5
			l1.7-2C798.4,270.9,784.6,270.9,780.2,270.9z"/>
		<path class="st28" d="M780.1,270.5c-4.5,0-5.8,2-5.8,2h14.6l-10.2,12.8c0,0-6.3,0-9.1,0s-4.8,2-4.8,2h14.9l11.9-14.8h5l1.7-2
			C798.1,270.5,784.6,270.5,780.1,270.5z"/>
		<path class="st29" d="M780,270.2c-4.7,0-5.9,2-5.9,2h14.6L778.4,285c0,0-6.1,0-9.1,0c-2.9,0-5,2-5,2h14.9l11.9-14.8h5l1.7-2
			C797.8,270.2,784.7,270.2,780,270.2z"/>
	</g>
	<path class="st0" d="M778.5,270.2c-2.8,0-4.5,2-4.5,2h14.6L778.3,285c0,0-5.8,0-9.1,0c-3.2,0-5,2-5,2h14.9l11.9-14.8
		c0,0,0.7,0,2.1,0c2.3,0,4.5-2,4.5-2S781.3,270.2,778.5,270.2z"/>
</g>
</svg>
