<?xml version="1.0" encoding="utf-8"?>
<!-- Generator: Adobe Illustrator 19.0.0, SVG Export Plug-In . SVG Version: 6.00 Build 0)  -->
<svg version="1.1" id="圖層_1" xmlns="http://www.w3.org/2000/svg" xmlns:xlink="http://www.w3.org/1999/xlink" x="0px" y="0px"
	 viewBox="179 -73.3 1200 469.5" style="enable-background:new 179 -73.3 1200 469.5;" xml:space="preserve">
<style type="text/css">
	.st0{fill:#FFFFFF;}
	.st1{fill:#EBEBEB;}
	.st2{fill:#C5C5C6;}
	.st3{fill:#C5C5C5;}
	.st4{fill:#C4C4C4;}
	.st5{fill:#C3C3C3;}
	.st6{fill:#C2C2C2;}
	.st7{fill:#C1C1C1;}
	.st8{fill:#C0C0C0;}
	.st9{fill:#BFBFBF;}
	.st10{fill:#BEBEBE;}
	.st11{fill:#BDBDBD;}
	.st12{fill:#BCBCBC;}
	.st13{fill:#BBBBBB;}
	.st14{fill:#BABABA;}
	.st15{fill:#B9B9B9;}
	.st16{fill:#B8B8B8;}
	.st17{fill:#B7B7B7;}
	.st18{fill:#B6B6B6;}
	.st19{fill:#B5B5B5;}
	.st20{fill:#B4B4B4;}
	.st21{fill:#B3B3B3;}
	.st22{fill:#B2B2B2;}
	.st23{fill:#B1B1B1;}
	.st24{fill:#B0B0B0;}
	.st25{fill:#AFAFAF;}
	.st26{fill:#AEAEAE;}
	.st27{fill:#ADADAD;}
	.st28{fill:#ACACAC;}
	.st29{fill:#ABABAB;}
</style>
<polygon id="XMLID_1_" class="st0" points="1379,-73.3 1379,173 179,342.7 179,96.4 "/>
<polygon id="XMLID_2_" class="st0" points="1379,96.4 1379,342.7 179,173 179,-73.3 "/>
<polygon class="st1" points="779.5,27.5 779.5,27.6 179,-50.6 179,342.7 779.5,273.1 1379,342.7 1379,-50.6 "/>
<polygon class="st2" points="779.7,320.2 564.8,297.9 779.7,273.1 994.1,297.9 "/>
<g>
	<g>
		<polygon class="st3" points="778,296 776.4,298.2 790.9,298.2 780.7,310.9 768.5,310.9 766.8,313 781.7,313 793.6,298.2 
			798.5,298.2 800.2,296 		"/>
		<path class="st4" d="M777.9,295.7c-0.2,0-1.8,2-1.8,2h14.5l-10.2,12.8c0,0-12,0-12.2,0c-0.1,0-1.9,2-1.9,2h14.9l11.9-14.8h5l1.7-2
			C800,295.7,778,295.7,777.9,295.7z"/>
		<path class="st5" d="M777.8,295.3c-0.4,0-1.9,2-1.9,2h14.6l-10.2,12.8c0,0-11.8,0-12,0c-0.2,0-2,2-2,2h14.9l11.9-14.8h5l1.7-2
			C799.7,295.3,778.1,295.3,777.8,295.3z"/>
		<path class="st6" d="M777.7,294.9c-0.5,0-2,2-2,2h14.6L780,309.7c0,0-11.5,0-11.9,0c-0.4,0-2,2-2,2H781l11.9-14.8h5l1.7-2
			C799.4,294.9,778.2,294.9,777.7,294.9z"/>
		<path class="st7" d="M777.6,294.5c-0.7,0-2.2,2-2.2,2h14.6l-10.2,12.8c0,0-11.4,0-11.8,0s-2.2,2-2.2,2h14.9l11.9-14.8h5l1.7-2
			C799.2,294.5,778.3,294.5,777.6,294.5z"/>
		<path class="st8" d="M777.5,294.2c-0.9,0-2.4,2-2.4,2h14.6L779.5,309c0,0-11.1,0-11.6,0c-0.5,0-2.3,2-2.3,2h14.9l11.9-14.8h5
			l1.7-2C798.9,294.2,778.4,294.2,777.5,294.2z"/>
		<path class="st9" d="M777.4,293.8c-1.1,0-2.6,2-2.6,2h14.6l-10.3,12.9c0,0-10.9,0-11.5,0c-0.6,0-2.4,2-2.4,2h14.9L792,296h5l1.7-2
			C798.6,293.8,778.5,293.8,777.4,293.8z"/>
		<path class="st10" d="M777.3,293.4c-1.2,0-2.8,2-2.8,2h14.6l-10.2,12.8c0,0-10.6,0-11.4,0c-0.8,0-2.6,2-2.6,2h14.9l11.9-14.8h5
			l1.7-2C798.4,293.4,778.6,293.4,777.3,293.4z"/>
		<path class="st11" d="M777.2,293c-1.4,0-2.8,2-2.8,2h14.5l-10.2,12.8c0,0-10.4,0-11.3,0s-2.7,2-2.7,2h14.9l11.9-14.8h5l1.7-2
			C798.1,293,778.6,293,777.2,293z"/>
		<path class="st12" d="M777.1,292.7c-1.6,0-3,2-3,2h14.6l-10.2,12.8c0,0-10.2,0-11.2,0s-2.8,2-2.8,2h14.9l11.9-14.8h5l1.7-2
			C797.8,292.7,778.7,292.7,777.1,292.7z"/>
		<path class="st13" d="M777,292.3c-1.8,0-3.2,2-3.2,2h14.6l-10.2,12.8c0,0-9.9,0-11,0c-1.1,0-2.9,2-2.9,2h14.9l11.9-14.8h5l1.7-2
			C797.6,292.3,778.7,292.3,777,292.3z"/>
		<path class="st14" d="M776.9,292c-2,0-3.4,2-3.4,2h14.6l-10.2,12.8c0,0-9.8,0-10.9,0s-3,2-3,2h14.9l11.9-14.8h5l1.7-2
			C797.4,292,778.8,292,776.9,292z"/>
		<path class="st15" d="M776.8,291.5c-2.1,0-3.5,2-3.5,2h14.6l-10.2,12.8c0,0-9.5,0-10.8,0s-3.2,2-3.2,2h14.9l11.9-14.8h5l1.7-2
			C797.1,291.5,778.9,291.5,776.8,291.5z"/>
		<path class="st16" d="M776.7,291.2c-2.3,0-3.6,2-3.6,2h14.6l-10.3,12.9c0,0-9.3,0-10.6,0c-1.4,0-3.3,2-3.3,2h14.9l11.9-14.8h5
			l1.7-2C796.8,291.2,779,291.2,776.7,291.2z"/>
		<path class="st17" d="M776.6,290.8c-2.5,0-3.8,2-3.8,2h14.6l-10.2,12.8c0,0-9.1,0-10.6,0c-1.5,0-3.4,2-3.4,2h14.9l11.9-14.8h5
			l1.7-2C796.6,290.8,779,290.8,776.6,290.8z"/>
		<path class="st17" d="M776.5,290.5c-2.7,0-4,2-4,2h14.6l-10.2,12.8c0,0-8.9,0-10.5,0c-1.6,0-3.5,2-3.5,2h14.9l11.9-14.8h5l1.7-2
			C796.3,290.5,779.1,290.5,776.5,290.5z"/>
		<path class="st18" d="M776.4,290c-2.8,0-4.2,2-4.2,2h14.6l-10.2,12.8c0,0-8.6,0-10.3,0c-1.7,0-3.6,2-3.6,2h14.9l11.9-14.8h5l1.7-2
			C796,290,779.2,290,776.4,290z"/>
		<path class="st19" d="M776.3,289.7c-3,0-4.3,2-4.3,2h14.6l-10.2,12.8c0,0-8.3,0-10.2,0s-3.7,2-3.7,2h14.9l11.9-14.8h5l1.7-2
			C795.8,289.7,779.3,289.7,776.3,289.7z"/>
		<path class="st20" d="M776.2,289.3c-3.2,0-4.5,2-4.5,2h14.6L776,304.2c0,0-8.2,0-10.1,0c-2,0-3.9,2-3.9,2h14.9l11.9-14.8h5l1.7-2
			C795.5,289.3,779.4,289.3,776.2,289.3z"/>
		<path class="st21" d="M776.1,288.9c-3.4,0-4.6,2-4.6,2H786l-10.2,12.8c0,0-7.9,0-9.9,0s-4,2-4,2h14.9l11.9-14.8h5l1.7-2
			C795.3,288.9,779.5,288.9,776.1,288.9z"/>
		<path class="st22" d="M776,288.5c-3.5,0-4.8,2-4.8,2h14.6l-10.2,12.8c0,0-7.7,0-9.8,0s-4.1,2-4.1,2h14.8l11.9-14.8h5l1.7-2
			C795,288.5,779.5,288.5,776,288.5z"/>
		<path class="st23" d="M775.9,288.1c-3.7,0-5,2-5,2h14.6L775.3,303c0,0-7.5,0-9.8,0s-4.3,2-4.3,2h14.9l11.9-14.8h5l1.7-2
			C794.7,288.1,779.5,288.1,775.9,288.1z"/>
		<path class="st24" d="M775.8,287.8c-3.9,0-5.1,2-5.1,2h14.6L775,302.6c0,0-7.3,0-9.6,0c-2.4,0-4.3,2-4.3,2H776l11.9-14.8h5l1.7-2
			C794.5,287.8,779.6,287.8,775.8,287.8z"/>
		<path class="st25" d="M775.6,287.4c-4.1,0-5.3,2-5.3,2h14.6l-10.2,12.8c0,0-7,0-9.5,0s-4.4,2-4.4,2h14.9l11.9-14.8h5l1.7-2
			C794.2,287.4,779.7,287.4,775.6,287.4z"/>
		<path class="st26" d="M775.6,287c-4.3,0-5.5,2-5.5,2h14.6l-10.2,12.8c0,0-6.7,0-9.4,0c-2.6,0-4.6,2-4.6,2h14.9l11.9-14.8h5l1.7-2
			C793.9,287,779.8,287,775.6,287z"/>
		<path class="st27" d="M775.5,286.6c-4.4,0-5.6,2-5.6,2h14.6l-10.3,12.9c0,0-6.6,0-9.2,0s-4.7,2-4.7,2h14.9l11.9-14.8h5l1.7-2
			C793.7,286.6,779.9,286.6,775.5,286.6z"/>
		<path class="st28" d="M775.4,286.3c-4.5,0-5.8,2-5.8,2h14.6L774,301.1c0,0-6.3,0-9.1,0c-2.8,0-4.8,2-4.8,2h14.9l11.9-14.8h5l1.7-2
			C793.4,286.3,779.9,286.3,775.4,286.3z"/>
		<path class="st29" d="M775.3,285.9c-4.7,0-5.9,2-5.9,2h14.6l-10.2,12.8c0,0-6.1,0-9.1,0s-5,2-5,2h14.9l11.9-14.8h5l1.7-2
			C793.1,285.9,780,285.9,775.3,285.9z"/>
	</g>
	<path class="st0" d="M773.8,285.9c-2.8,0-4.5,2-4.5,2h14.6l-10.2,12.8c0,0-5.8,0-9.1,0c-3.2,0-5,2-5,2h14.9l11.9-14.8
		c0,0,0.7,0,2.1,0c2.3,0,4.5-2,4.5-2S776.6,285.9,773.8,285.9z"/>
</g>
</svg>
