<?xml version="1.0" encoding="utf-8"?>
<!-- Generator: Adobe Illustrator 19.0.0, SVG Export Plug-In . SVG Version: 6.00 Build 0)  -->
<svg version="1.1" id="圖層_1" xmlns="http://www.w3.org/2000/svg" xmlns:xlink="http://www.w3.org/1999/xlink" x="0px" y="0px"
	 viewBox="179 -73.3 1200 469.5" style="enable-background:new 179 -73.3 1200 469.5;" xml:space="preserve">
<style type="text/css">
	.st0{fill:#FFFFFF;}
	.st1{fill:#EBEBEB;}
	.st2{fill:#C5C5C6;}
	.st3{fill:#C5C5C5;}
	.st4{fill:#C4C4C4;}
	.st5{fill:#C3C3C3;}
	.st6{fill:#C2C2C2;}
	.st7{fill:#C1C1C1;}
	.st8{fill:#C0C0C0;}
	.st9{fill:#BFBFBF;}
	.st10{fill:#BEBEBE;}
	.st11{fill:#BDBDBD;}
	.st12{fill:#BCBCBC;}
	.st13{fill:#BBBBBB;}
	.st14{fill:#BABABA;}
	.st15{fill:#B9B9B9;}
	.st16{fill:#B8B8B8;}
	.st17{fill:#B7B7B7;}
	.st18{fill:#B6B6B6;}
	.st19{fill:#B5B5B5;}
	.st20{fill:#B4B4B4;}
	.st21{fill:#B3B3B3;}
	.st22{fill:#B2B2B2;}
	.st23{fill:#B1B1B1;}
	.st24{fill:#B0B0B0;}
	.st25{fill:#AFAFAF;}
	.st26{fill:#AEAEAE;}
	.st27{fill:#ADADAD;}
	.st28{fill:#ACACAC;}
	.st29{fill:#ABABAB;}
</style>
<polygon id="XMLID_1_" class="st0" points="1379,-73.3 1379,204 179,373.7 179,96.4 "/>
<polygon id="XMLID_2_" class="st0" points="1379,96.4 1379,373.7 179,204 179,-73.3 "/>
<polygon class="st1" points="779.5,27.5 779.5,27.6 179,-50.6 179,373.7 779.5,304 1379,373.7 1379,-50.6 "/>
<polygon class="st2" points="779.7,351.2 564.8,328.9 779.7,304 994.1,328.9 "/>
<g>
	<g>
		<polygon class="st3" points="778,327 776.4,329.2 790.9,329.2 780.7,341.9 768.5,341.9 766.8,344 781.7,344 793.6,329.2 
			798.5,329.2 800.2,327 		"/>
		<path class="st4" d="M777.9,326.7c-0.2,0-1.8,2-1.8,2h14.5l-10.2,12.8c0,0-12,0-12.2,0c-0.1,0-1.9,2-1.9,2h14.9l11.9-14.8h5l1.7-2
			C800,326.7,778,326.7,777.9,326.7z"/>
		<path class="st5" d="M777.8,326.3c-0.4,0-1.9,2-1.9,2h14.6l-10.2,12.8c0,0-11.8,0-12,0c-0.2,0-2,2-2,2h14.9l11.9-14.8h5l1.7-2
			C799.7,326.3,778.1,326.3,777.8,326.3z"/>
		<path class="st6" d="M777.7,325.9c-0.5,0-2,2-2,2h14.6L780,340.7c0,0-11.5,0-11.9,0c-0.4,0-2,2-2,2H781l11.9-14.8h5l1.7-2
			C799.4,325.9,778.2,325.9,777.7,325.9z"/>
		<path class="st7" d="M777.6,325.5c-0.7,0-2.2,2-2.2,2h14.6l-10.2,12.8c0,0-11.4,0-11.8,0s-2.2,2-2.2,2h14.9l11.9-14.8h5l1.7-2
			C799.2,325.5,778.3,325.5,777.6,325.5z"/>
		<path class="st8" d="M777.5,325.2c-0.9,0-2.4,2-2.4,2h14.6L779.5,340c0,0-11.1,0-11.6,0c-0.5,0-2.3,2-2.3,2h14.9l11.9-14.8h5
			l1.7-2C798.9,325.2,778.4,325.2,777.5,325.2z"/>
		<path class="st9" d="M777.4,324.8c-1.1,0-2.6,2-2.6,2h14.6l-10.3,12.9c0,0-10.9,0-11.5,0c-0.6,0-2.4,2-2.4,2h14.9l11.9-14.8h5
			l1.7-2C798.6,324.8,778.5,324.8,777.4,324.8z"/>
		<path class="st10" d="M777.3,324.4c-1.2,0-2.8,2-2.8,2h14.6l-10.2,12.8c0,0-10.6,0-11.4,0c-0.8,0-2.6,2-2.6,2h14.9l11.9-14.8h5
			l1.7-2C798.4,324.4,778.6,324.4,777.3,324.4z"/>
		<path class="st11" d="M777.2,324c-1.4,0-2.8,2-2.8,2h14.5l-10.2,12.8c0,0-10.4,0-11.3,0s-2.7,2-2.7,2h14.9l11.9-14.8h5l1.7-2
			C798.1,324,778.6,324,777.2,324z"/>
		<path class="st12" d="M777.1,323.7c-1.6,0-3,2-3,2h14.6l-10.2,12.8c0,0-10.2,0-11.2,0s-2.8,2-2.8,2h14.9l11.9-14.8h5l1.7-2
			C797.8,323.7,778.7,323.7,777.1,323.7z"/>
		<path class="st13" d="M777,323.3c-1.8,0-3.2,2-3.2,2h14.6l-10.2,12.8c0,0-9.9,0-11,0c-1.1,0-2.9,2-2.9,2h14.9l11.9-14.8h5l1.7-2
			C797.6,323.3,778.7,323.3,777,323.3z"/>
		<path class="st14" d="M776.9,322.9c-2,0-3.4,2-3.4,2h14.6l-10.2,12.8c0,0-9.8,0-10.9,0s-3,2-3,2h14.9l11.9-14.8h5l1.7-2
			C797.4,322.9,778.8,322.9,776.9,322.9z"/>
		<path class="st15" d="M776.8,322.5c-2.1,0-3.5,2-3.5,2h14.6l-10.2,12.8c0,0-9.5,0-10.8,0s-3.2,2-3.2,2h14.9l11.9-14.8h5l1.7-2
			C797.1,322.5,778.9,322.5,776.8,322.5z"/>
		<path class="st16" d="M776.7,322.1c-2.3,0-3.6,2-3.6,2h14.6l-10.3,12.9c0,0-9.3,0-10.6,0c-1.4,0-3.3,2-3.3,2h14.9l11.9-14.8h5
			l1.7-2C796.8,322.1,779,322.1,776.7,322.1z"/>
		<path class="st17" d="M776.6,321.8c-2.5,0-3.8,2-3.8,2h14.6l-10.2,12.8c0,0-9.1,0-10.6,0c-1.5,0-3.4,2-3.4,2h14.9l11.9-14.8h5
			l1.7-2C796.6,321.8,779,321.8,776.6,321.8z"/>
		<path class="st17" d="M776.5,321.4c-2.7,0-4,2-4,2h14.6l-10.2,12.8c0,0-8.9,0-10.5,0c-1.6,0-3.5,2-3.5,2h14.9l11.9-14.8h5l1.7-2
			C796.3,321.4,779.1,321.4,776.5,321.4z"/>
		<path class="st18" d="M776.4,321c-2.8,0-4.2,2-4.2,2h14.6l-10.2,12.8c0,0-8.6,0-10.3,0c-1.7,0-3.6,2-3.6,2h14.9l11.9-14.8h5l1.7-2
			C796,321,779.2,321,776.4,321z"/>
		<path class="st19" d="M776.3,320.6c-3,0-4.3,2-4.3,2h14.6l-10.2,12.8c0,0-8.3,0-10.2,0s-3.7,2-3.7,2h14.9l11.9-14.8h5l1.7-2
			C795.8,320.6,779.3,320.6,776.3,320.6z"/>
		<path class="st20" d="M776.2,320.3c-3.2,0-4.5,2-4.5,2h14.6L776,335.2c0,0-8.2,0-10.1,0c-2,0-3.9,2-3.9,2h14.9l11.9-14.8h5l1.7-2
			C795.5,320.3,779.4,320.3,776.2,320.3z"/>
		<path class="st21" d="M776.1,319.9c-3.4,0-4.6,2-4.6,2H786l-10.2,12.8c0,0-7.9,0-9.9,0s-4,2-4,2h14.9l11.9-14.8h5l1.7-2
			C795.3,319.9,779.5,319.9,776.1,319.9z"/>
		<path class="st22" d="M776,319.5c-3.5,0-4.8,2-4.8,2h14.6l-10.2,12.8c0,0-7.7,0-9.8,0s-4.1,2-4.1,2h14.8l11.9-14.8h5l1.7-2
			C795,319.5,779.5,319.5,776,319.5z"/>
		<path class="st23" d="M775.9,319.1c-3.7,0-5,2-5,2h14.6l-10.2,12.8c0,0-7.5,0-9.8,0s-4.3,2-4.3,2h14.9l11.9-14.8h5l1.7-2
			C794.7,319.1,779.5,319.1,775.9,319.1z"/>
		<path class="st24" d="M775.8,318.8c-3.9,0-5.1,2-5.1,2h14.6L775,333.6c0,0-7.3,0-9.6,0c-2.4,0-4.3,2-4.3,2H776l11.9-14.8h5l1.7-2
			C794.5,318.8,779.6,318.8,775.8,318.8z"/>
		<path class="st25" d="M775.6,318.4c-4.1,0-5.3,2-5.3,2h14.6l-10.2,12.8c0,0-7,0-9.5,0s-4.4,2-4.4,2h14.9l11.9-14.8h5l1.7-2
			C794.2,318.4,779.7,318.4,775.6,318.4z"/>
		<path class="st26" d="M775.6,318c-4.3,0-5.5,2-5.5,2h14.6l-10.2,12.8c0,0-6.7,0-9.4,0c-2.6,0-4.6,2-4.6,2h14.9l11.9-14.8h5l1.7-2
			C793.9,318,779.8,318,775.6,318z"/>
		<path class="st27" d="M775.5,317.6c-4.4,0-5.6,2-5.6,2h14.6l-10.3,12.9c0,0-6.6,0-9.2,0s-4.7,2-4.7,2h14.9l11.9-14.8h5l1.7-2
			C793.7,317.6,779.9,317.6,775.5,317.6z"/>
		<path class="st28" d="M775.4,317.3c-4.5,0-5.8,2-5.8,2h14.6L774,332.1c0,0-6.3,0-9.1,0c-2.8,0-4.8,2-4.8,2h14.9l11.9-14.8h5l1.7-2
			C793.4,317.3,779.9,317.3,775.4,317.3z"/>
		<path class="st29" d="M775.3,316.9c-4.7,0-5.9,2-5.9,2h14.6l-10.2,12.8c0,0-6.1,0-9.1,0s-5,2-5,2h14.9l11.9-14.8h5l1.7-2
			C793.1,316.9,780,316.9,775.3,316.9z"/>
	</g>
	<path class="st0" d="M773.8,316.9c-2.8,0-4.5,2-4.5,2h14.6l-10.2,12.8c0,0-5.8,0-9.1,0c-3.2,0-5,2-5,2h14.9l11.9-14.8
		c0,0,0.7,0,2.1,0c2.3,0,4.5-2,4.5-2S776.6,316.9,773.8,316.9z"/>
</g>
</svg>
