<?xml version="1.0" encoding="utf-8"?>
<!-- Generator: Adobe Illustrator 19.0.0, SVG Export Plug-In . SVG Version: 6.00 Build 0)  -->
<svg version="1.1" id="圖層_1" xmlns="http://www.w3.org/2000/svg" xmlns:xlink="http://www.w3.org/1999/xlink" x="0px" y="0px"
	 viewBox="179 -31 1200 655.3" style="enable-background:new 179 -31 1200 655.3;" xml:space="preserve">
<style type="text/css">
	.st0{fill:#FFFFFF;}
	.st1{fill:#EBEBEB;}
	.st2{fill:#C5C5C6;}
	.st3{fill:#C5C5C5;}
	.st4{fill:#C4C4C4;}
	.st5{fill:#C3C3C3;}
	.st6{fill:#C2C2C2;}
	.st7{fill:#C1C1C1;}
	.st8{fill:#C0C0C0;}
	.st9{fill:#BFBFBF;}
	.st10{fill:#BEBEBE;}
	.st11{fill:#BDBDBD;}
	.st12{fill:#BCBCBC;}
	.st13{fill:#BBBBBB;}
	.st14{fill:#BABABA;}
	.st15{fill:#B9B9B9;}
	.st16{fill:#B8B8B8;}
	.st17{fill:#B7B7B7;}
	.st18{fill:#B6B6B6;}
	.st19{fill:#B5B5B5;}
	.st20{fill:#B4B4B4;}
	.st21{fill:#B3B3B3;}
	.st22{fill:#B2B2B2;}
	.st23{fill:#B1B1B1;}
	.st24{fill:#B0B0B0;}
	.st25{fill:#AFAFAF;}
	.st26{fill:#AEAEAE;}
	.st27{fill:#ADADAD;}
	.st28{fill:#ACACAC;}
	.st29{fill:#ABABAB;}
</style>
<polygon id="XMLID_1_" class="st0" points="1379,-31 1379,264.8 179,482.3 179,186.4 "/>
<polygon id="XMLID_2_" class="st0" points="1379,186.4 1379,482.3 179,264.8 179,-31 "/>
<polygon class="st1" points="779.5,98.1 779.5,98.3 179,-1.9 179,482.3 779.5,393 1379,482.3 1379,-1.9 "/>
<polygon class="st2" points="779.7,453.4 564.8,424.9 779.7,393 994.1,424.9 "/>
<g>
	<polygon class="st3" points="777.8,423.8 776,426.2 792.3,426.2 780.8,440.6 767,440.6 765.1,442.9 781.9,442.9 795.3,426.2 
		800.9,426.2 802.8,423.8 	"/>
	<path class="st4" d="M777.7,423.4c-0.2,0-2,2.3-2,2.3H792l-11.5,14.4c0,0-13.5,0-13.7,0c-0.1,0-2.1,2.3-2.1,2.3h16.8l13.4-16.7h5.6
		l1.9-2.3C802.5,423.4,777.8,423.4,777.7,423.4z"/>
	<path class="st5" d="M777.5,423c-0.4,0-2.1,2.3-2.1,2.3h16.4l-11.5,14.4c0,0-13.3,0-13.5,0s-2.2,2.3-2.2,2.3h16.8l13.4-16.7h5.6
		l1.9-2.3C802.2,423,777.9,423,777.5,423z"/>
	<path class="st6" d="M777.4,422.5c-0.6,0-2.3,2.3-2.3,2.3h16.4l-11.5,14.4c0,0-13,0-13.4,0c-0.4,0-2.3,2.3-2.3,2.3h16.8l13.4-16.7
		h5.6l1.9-2.3C801.9,422.5,778,422.5,777.4,422.5z"/>
	<path class="st7" d="M777.3,422.1c-0.8,0-2.5,2.3-2.5,2.3h16.4l-11.5,14.4c0,0-12.8,0-13.3,0s-2.5,2.3-2.5,2.3h16.8l13.4-16.7h5.6
		l1.9-2.3C801.6,422.1,778.1,422.1,777.3,422.1z"/>
	<path class="st8" d="M777.2,421.7c-1,0-2.7,2.3-2.7,2.3h16.4l-11.5,14.4c0,0-12.5,0-13.1,0c-0.6,0-2.6,2.3-2.6,2.3h16.8l13.4-16.7
		h5.6l1.9-2.3C801.3,421.7,778.2,421.7,777.2,421.7z"/>
	<path class="st9" d="M777.1,421.3c-1.2,0-2.9,2.3-2.9,2.3h16.4L779,438.1c0,0-12.3,0-13,0s-2.7,2.3-2.7,2.3h16.8l13.4-16.7h5.6
		l1.9-2.3C801,421.3,778.3,421.3,777.1,421.3z"/>
	<path class="st10" d="M777,420.8c-1.4,0-3.1,2.3-3.1,2.3h16.4l-11.5,14.4c0,0-12,0-12.9,0c-0.9,0-2.9,2.3-2.9,2.3h16.8l13.4-16.7
		h5.6l1.9-2.3C800.7,420.8,778.4,420.8,777,420.8z"/>
	<path class="st11" d="M776.9,420.4c-1.6,0-3.2,2.3-3.2,2.3H790l-11.5,14.4c0,0-11.7,0-12.7,0s-3,2.3-3,2.3h16.8l13.4-16.7h5.6
		l1.9-2.3C800.4,420.4,778.4,420.4,776.9,420.4z"/>
	<path class="st12" d="M776.7,420c-1.8,0-3.4,2.3-3.4,2.3h16.4l-11.5,14.4c0,0-11.5,0-12.6,0s-3.1,2.3-3.1,2.3h16.8l13.4-16.7h5.6
		l1.9-2.3C800.1,420,778.5,420,776.7,420z"/>
	<path class="st13" d="M776.6,419.6c-2,0-3.6,2.3-3.6,2.3h16.4l-11.5,14.4c0,0-11.2,0-12.4,0s-3.3,2.3-3.3,2.3H779l13.4-16.7h5.6
		l1.9-2.3C799.8,419.6,778.6,419.6,776.6,419.6z"/>
	<path class="st14" d="M776.5,419.2c-2.2,0-3.8,2.3-3.8,2.3h16.4l-11.5,14.4c0,0-11,0-12.3,0s-3.4,2.3-3.4,2.3h16.8l13.4-16.7h5.6
		l1.9-2.3C799.6,419.2,778.7,419.2,776.5,419.2z"/>
	<path class="st15" d="M776.4,418.7c-2.4,0-4,2.3-4,2.3h16.4l-11.5,14.4c0,0-10.7,0-12.2,0s-3.6,2.3-3.6,2.3h16.8l13.4-16.7h5.6
		l1.9-2.3C799.3,418.7,778.8,418.7,776.4,418.7z"/>
	<path class="st16" d="M776.3,418.3c-2.6,0-4.1,2.3-4.1,2.3h16.4L777,435.1c0,0-10.5,0-12,0c-1.6,0-3.7,2.3-3.7,2.3h16.8l13.4-16.7
		h5.6l1.9-2.3C799,418.3,778.9,418.3,776.3,418.3z"/>
	<path class="st17" d="M776.2,417.9c-2.8,0-4.3,2.3-4.3,2.3h16.4l-11.5,14.4c0,0-10.2,0-11.9,0s-3.8,2.3-3.8,2.3h16.8l13.4-16.7h5.6
		l1.9-2.3C798.7,417.9,778.9,417.9,776.2,417.9z"/>
	<path class="st17" d="M776.1,417.5c-3,0-4.5,2.3-4.5,2.3h16.4l-11.5,14.4c0,0-10,0-11.8,0c-1.8,0-4,2.3-4,2.3h16.8l13.4-16.7h5.6
		l1.9-2.3C798.4,417.5,779,417.5,776.1,417.5z"/>
	<path class="st18" d="M775.9,417c-3.2,0-4.7,2.3-4.7,2.3h16.4l-11.5,14.4c0,0-9.7,0-11.6,0s-4.1,2.3-4.1,2.3h16.8l13.4-16.7h5.6
		l1.9-2.3C798.1,417,779.1,417,775.9,417z"/>
	<path class="st19" d="M775.8,416.6c-3.4,0-4.9,2.3-4.9,2.3h16.4l-11.5,14.4c0,0-9.4,0-11.5,0c-2.1,0-4.2,2.3-4.2,2.3h16.8
		l13.4-16.7h5.6l1.9-2.3C797.8,416.6,779.2,416.6,775.8,416.6z"/>
	<path class="st20" d="M775.7,416.2c-3.6,0-5.1,2.3-5.1,2.3H787L775.5,433c0,0-9.2,0-11.4,0s-4.4,2.3-4.4,2.3h16.8l13.4-16.7h5.6
		l1.9-2.3C797.5,416.2,779.3,416.2,775.7,416.2z"/>
	<path class="st21" d="M775.6,415.8c-3.8,0-5.2,2.3-5.2,2.3h16.4l-11.5,14.4c0,0-8.9,0-11.2,0c-2.3,0-4.5,2.3-4.5,2.3h16.8
		l13.4-16.7h5.6l1.9-2.3C797.2,415.8,779.4,415.8,775.6,415.8z"/>
	<path class="st22" d="M775.5,415.3c-4,0-5.4,2.3-5.4,2.3h16.4l-11.5,14.4c0,0-8.7,0-11.1,0c-2.4,0-4.6,2.3-4.6,2.3H776l13.4-16.7
		h5.6l1.9-2.3C796.9,415.3,779.4,415.3,775.5,415.3z"/>
	<path class="st23" d="M775.4,414.9c-4.2,0-5.6,2.3-5.6,2.3h16.4l-11.5,14.4c0,0-8.4,0-11,0c-2.6,0-4.8,2.3-4.8,2.3h16.8l13.4-16.7
		h5.6l1.9-2.3C796.6,414.9,779.5,414.9,775.4,414.9z"/>
	<path class="st24" d="M775.3,414.5c-4.4,0-5.8,2.3-5.8,2.3h16.4l-11.5,14.4c0,0-8.2,0-10.8,0c-2.7,0-4.9,2.3-4.9,2.3h16.8
		l13.4-16.7h5.6l1.9-2.3C796.3,414.5,779.6,414.5,775.3,414.5z"/>
	<path class="st25" d="M775.1,414.1c-4.6,0-6,2.3-6,2.3h16.4L774,430.8c0,0-7.9,0-10.7,0c-2.8,0-5,2.3-5,2.3h16.8l13.4-16.7h5.6
		l1.9-2.3C796,414.1,779.7,414.1,775.1,414.1z"/>
	<path class="st26" d="M775,413.6c-4.8,0-6.2,2.3-6.2,2.3h16.4l-11.5,14.4c0,0-7.6,0-10.6,0c-2.9,0-5.2,2.3-5.2,2.3h16.8l13.4-16.7
		h5.6l1.9-2.3C795.7,413.6,779.8,413.6,775,413.6z"/>
	<path class="st27" d="M774.9,413.2c-5,0-6.3,2.3-6.3,2.3h16.4L773.4,430c0,0-7.4,0-10.4,0c-3,0-5.3,2.3-5.3,2.3h16.8l13.4-16.7h5.6
		l1.9-2.3C795.4,413.2,779.9,413.2,774.9,413.2z"/>
	<path class="st28" d="M774.8,412.8c-5.1,0-6.5,2.3-6.5,2.3h16.4l-11.5,14.4c0,0-7.1,0-10.3,0c-3.2,0-5.4,2.3-5.4,2.3h16.8
		l13.4-16.7h5.6l1.9-2.3C795.1,412.8,779.9,412.8,774.8,412.8z"/>
	<path class="st29" d="M774.7,412.4c-5.3,0-6.7,2.3-6.7,2.3h16.4l-11.5,14.4c0,0-6.9,0-10.2,0c-3.3,0-5.6,2.3-5.6,2.3h16.8
		l13.4-16.7h5.6l1.9-2.3C794.8,412.4,780,412.4,774.7,412.4z"/>
</g>
<path class="st0" d="M773,412.4c-3.1,0-5.1,2.3-5.1,2.3h16.4l-11.5,14.4c0,0-6.5,0-10.2,0c-3.6,0-5.6,2.3-5.6,2.3h16.8l13.4-16.7
	c0,0,0.8,0,2.4,0c2.6,0,5.1-2.3,5.1-2.3S776.2,412.4,773,412.4z"/>
</svg>
