<?xml version="1.0" encoding="utf-8"?>
<!-- Generator: Adobe Illustrator 19.0.0, SVG Export Plug-In . SVG Version: 6.00 Build 0)  -->
<svg version="1.1" id="圖層_1" xmlns="http://www.w3.org/2000/svg" xmlns:xlink="http://www.w3.org/1999/xlink" x="0px" y="0px"
	 viewBox="0 0 124.4 95.1" style="enable-background:new 0 0 124.4 95.1;" xml:space="preserve">
<style type="text/css">
	.st0{fill:none;stroke:#C9CBE6;stroke-width:1.5;stroke-miterlimit:10;}
	.st1{fill:none;stroke:#C9CBE6;stroke-width:1.5;stroke-linecap:round;stroke-miterlimit:10;}
</style>
<polygon class="st0" points="8.1,12.1 8.1,36.6 29.3,24.4 "/>
<rect x="6.8" y="64.4" class="st0" width="5.8" height="20.3"/>
<rect x="18.7" y="64.4" class="st0" width="5.8" height="20.3"/>
<polygon class="st0" points="62.5,7.5 52.9,13.1 52.9,7.5 48.9,7.5 48.9,21.7 52.9,21.7 52.9,15.4 62.5,21.1 "/>
<polygon class="st0" points="81.9,14.1 72.8,14.1 72.8,29.7 81.9,29.7 91.9,37.8 91.9,6.3 "/>
<path class="st1" d="M97.1,26.8c1.5-1.4,2.4-3.3,2.4-5.4c0-2.4-1.1-4.5-2.9-5.9"/>
<path class="st0" d="M90,20.6"/>
<path class="st0" d="M90,20.6"/>
<path class="st1" d="M101.7,31c2.5-2.5,4-5.9,4-9.6c0-3.8-1.6-7.3-4.2-9.8"/>
<path class="st1" d="M106.8,35.7c3.6-3.7,5.8-8.7,5.8-14.2c0-5.5-2.1-10.4-5.6-14.1"/>
<path class="st0" d="M90,20.6"/>
<polygon class="st0" points="81.9,63.2 72.8,63.2 72.8,78.9 81.9,78.9 91.9,87 91.9,55.4 "/>
<path class="st0" d="M90,69.7"/>
<path class="st0" d="M90,69.7"/>
<path class="st0" d="M90,69.7"/>
<line class="st1" x1="107.2" y1="66.5" x2="97.2" y2="76.5"/>
<line class="st1" x1="97.2" y1="66.5" x2="107.2" y2="76.5"/>
</svg>
