<?xml version="1.0" encoding="utf-8"?>
<!-- Generator: Adobe Illustrator 19.0.0, SVG Export Plug-In . SVG Version: 6.00 Build 0)  -->
<svg version="1.1" id="圖層_1" xmlns="http://www.w3.org/2000/svg" xmlns:xlink="http://www.w3.org/1999/xlink" x="0px" y="0px"
	 viewBox="179 -31 1200 89.2" style="enable-background:new 179 -31 1200 89.2;" xml:space="preserve">
<style type="text/css">
	.st0{fill:#EBEBEB;}
	.st1{fill:#C5C5C6;}
	.st2{fill:#C5C5C5;}
	.st3{fill:#C4C4C4;}
	.st4{fill:#C3C3C3;}
	.st5{fill:#C2C2C2;}
	.st6{fill:#C1C1C1;}
	.st7{fill:#C0C0C0;}
	.st8{fill:#BFBFBF;}
	.st9{fill:#BEBEBE;}
	.st10{fill:#BDBDBD;}
	.st11{fill:#BCBCBC;}
	.st12{fill:#BBBBBB;}
	.st13{fill:#BABABA;}
	.st14{fill:#B9B9B9;}
	.st15{fill:#B8B8B8;}
	.st16{fill:#B7B7B7;}
	.st17{fill:#B6B6B6;}
	.st18{fill:#B5B5B5;}
	.st19{fill:#B4B4B4;}
	.st20{fill:#B3B3B3;}
	.st21{fill:#B2B2B2;}
	.st22{fill:#B1B1B1;}
	.st23{fill:#B0B0B0;}
	.st24{fill:#AFAFAF;}
	.st25{fill:#AEAEAE;}
	.st26{fill:#ADADAD;}
	.st27{fill:#ACACAC;}
	.st28{fill:#ABABAB;}
	.st29{fill:#FFFFFF;}
</style>
<polygon class="st0" points="779.5,58.2 179,-31 179,58.2 1379,58.2 1379,-31 "/>
<polygon class="st1" points="779.6,58.2 647.3,38.6 779.6,19 911.6,38.6 "/>
<g>
	<polygon class="st2" points="778.4,37.9 777.3,39.4 787.4,39.4 780.3,48.3 771.8,48.3 770.6,49.7 781,49.7 789.2,39.4 792.7,39.4 
		793.8,37.9 	"/>
	<path class="st3" d="M778.4,37.7c-0.1,0-1.2,1.4-1.2,1.4h10l-7.1,8.9c0,0-8.3,0-8.4,0c-0.1,0-1.3,1.4-1.3,1.4h10.3l8.3-10.3h3.4
		l1.2-1.4C793.6,37.7,778.4,37.7,778.4,37.7z"/>
	<path class="st4" d="M778.2,37.5c-0.2,0-1.3,1.4-1.3,1.4h10.1l-7.1,8.9c0,0-8.2,0-8.3,0c-0.1,0-1.4,1.4-1.4,1.4h10.3l8.3-10.3h3.4
		l1.2-1.4C793.5,37.5,778.5,37.5,778.2,37.5z"/>
	<path class="st5" d="M778.2,37.1c-0.4,0-1.4,1.4-1.4,1.4h10.1l-7.1,8.9c0,0-8,0-8.3,0s-1.4,1.4-1.4,1.4h10.3l8.3-10.3h3.4l1.2-1.4
		C793.3,37.1,778.6,37.1,778.2,37.1z"/>
	<path class="st6" d="M778.1,36.9c-0.5,0-1.5,1.4-1.5,1.4h10.1l-7.1,8.9c0,0-7.9,0-8.2,0c-0.3,0-1.5,1.4-1.5,1.4h10.3l8.3-10.3h3.4
		l1.2-1.4C793.1,36.9,778.6,36.9,778.1,36.9z"/>
	<path class="st7" d="M778.1,36.7c-0.6,0-1.7,1.4-1.7,1.4h10.1l-7.1,8.9c0,0-7.7,0-8.1,0s-1.6,1.4-1.6,1.4h10.3l8.3-10.3h3.4
		l1.2-1.4C792.9,36.7,778.7,36.7,778.1,36.7z"/>
	<path class="st8" d="M778,36.4c-0.7,0-1.8,1.4-1.8,1.4h10.1l-7.1,8.9c0,0-7.6,0-8,0s-1.7,1.4-1.7,1.4h10.3l8.3-10.3h3.4l1.2-1.4
		C792.7,36.4,778.7,36.4,778,36.4z"/>
	<path class="st9" d="M777.9,36.1c-0.9,0-1.9,1.4-1.9,1.4h10.1l-7.1,8.9c0,0-7.4,0-7.9,0c-0.6,0-1.8,1.4-1.8,1.4h10.3l8.3-10.3h3.4
		l1.2-1.4C792.5,36.1,778.8,36.1,777.9,36.1z"/>
	<path class="st10" d="M777.9,35.8c-1,0-2,1.4-2,1.4h10l-7.1,8.9c0,0-7.2,0-7.8,0c-0.6,0-1.8,1.4-1.8,1.4h10.3l8.3-10.3h3.4l1.2-1.4
		C792.3,35.8,778.8,35.8,777.9,35.8z"/>
	<path class="st11" d="M777.8,35.6c-1.1,0-2.1,1.4-2.1,1.4h10.1l-7.1,8.9c0,0-7.1,0-7.8,0c-0.7,0-1.9,1.4-1.9,1.4h10.3l8.3-10.3h3.4
		l1.2-1.4C792.2,35.6,778.9,35.6,777.8,35.6z"/>
	<path class="st12" d="M777.7,35.4c-1.2,0-2.2,1.4-2.2,1.4h10.1l-7.1,8.9c0,0-6.9,0-7.6,0s-2,1.4-2,1.4h10.3l8.3-10.3h3.4l1.2-1.4
		C792,35.4,778.9,35.4,777.7,35.4z"/>
	<path class="st13" d="M777.6,35.1c-1.4,0-2.3,1.4-2.3,1.4h10.1l-7.1,8.9c0,0-6.8,0-7.6,0c-0.8,0-2.1,1.4-2.1,1.4H779l8.3-10.3h3.4
		l1.2-1.4C791.9,35.1,779,35.1,777.6,35.1z"/>
	<path class="st14" d="M777.6,34.8c-1.5,0-2.5,1.4-2.5,1.4h10.1l-7.1,8.9c0,0-6.6,0-7.5,0s-2.2,1.4-2.2,1.4h10.3l8.3-10.3h3.4
		l1.2-1.4C791.7,34.8,779,34.8,777.6,34.8z"/>
	<path class="st15" d="M777.5,34.6c-1.6,0-2.5,1.4-2.5,1.4h10.1l-7.1,8.9c0,0-6.5,0-7.4,0c-1,0-2.3,1.4-2.3,1.4h10.3l8.3-10.3h3.4
		l1.2-1.4C791.5,34.6,779.1,34.6,777.5,34.6z"/>
	<path class="st16" d="M777.4,34.3c-1.7,0-2.6,1.4-2.6,1.4h10.1l-7.1,8.9c0,0-6.3,0-7.3,0s-2.3,1.4-2.3,1.4h10.3l8.3-10.3h3.4
		l1.2-1.4C791.3,34.3,779.1,34.3,777.4,34.3z"/>
	<path class="st16" d="M777.4,34.1c-1.8,0-2.8,1.4-2.8,1.4h10.1l-7.1,8.9c0,0-6.2,0-7.3,0c-1.1,0-2.5,1.4-2.5,1.4h10.3l8.3-10.3h3.4
		l1.2-1.4C791.1,34.1,779.2,34.1,777.4,34.1z"/>
	<path class="st17" d="M777.3,33.8c-2,0-2.9,1.4-2.9,1.4h10.1l-7.1,8.9c0,0-6,0-7.1,0c-1.2,0-2.5,1.4-2.5,1.4h10.3l8.3-10.3h3.4
		l1.2-1.4C790.9,33.8,779.2,33.8,777.3,33.8z"/>
	<path class="st18" d="M777.2,33.5c-2.1,0-3,1.4-3,1.4h10.1l-7.1,8.9c0,0-5.8,0-7.1,0c-1.3,0-2.6,1.4-2.6,1.4h10.3l8.3-10.3h3.4
		l1.2-1.4C790.7,33.5,779.3,33.5,777.2,33.5z"/>
	<path class="st19" d="M777.1,33.3c-2.2,0-3.1,1.4-3.1,1.4h10.1l-7.1,8.9c0,0-5.7,0-7,0c-1.4,0-2.7,1.4-2.7,1.4h10.3l8.3-10.3h3.4
		l1.2-1.4C790.6,33.3,779.4,33.3,777.1,33.3z"/>
	<path class="st20" d="M777.1,33c-2.3,0-3.2,1.4-3.2,1.4H784l-7.1,8.9c0,0-5.5,0-6.9,0s-2.8,1.4-2.8,1.4h10.3l8.3-10.3h3.4l1.2-1.4
		C790.4,33,779.4,33,777.1,33z"/>
	<path class="st21" d="M777,32.7c-2.5,0-3.3,1.4-3.3,1.4h10.1l-7.1,8.9c0,0-5.4,0-6.8,0c-1.5,0-2.8,1.4-2.8,1.4h10.3l8.3-10.3h3.4
		l1.2-1.4C790.2,32.7,779.4,32.7,777,32.7z"/>
	<path class="st22" d="M777,32.5c-2.6,0-3.4,1.4-3.4,1.4h10.1l-7.1,8.9c0,0-5.2,0-6.8,0s-3,1.4-3,1.4h10.3l8.3-10.3h3.4l1.2-1.4
		C790,32.5,779.5,32.5,777,32.5z"/>
	<path class="st23" d="M776.9,32.2c-2.7,0-3.6,1.4-3.6,1.4h10.1l-7.1,8.9c0,0-5,0-6.6,0c-1.7,0-3,1.4-3,1.4H777l8.3-10.3h3.4
		l1.2-1.4C789.8,32.2,779.5,32.2,776.9,32.2z"/>
	<path class="st24" d="M776.8,32c-2.8,0-3.7,1.4-3.7,1.4h10.1l-7.1,8.9c0,0-4.9,0-6.6,0s-3.1,1.4-3.1,1.4h10.3l8.3-10.3h3.4l1.2-1.4
		C789.6,32,779.6,32,776.8,32z"/>
	<path class="st25" d="M776.7,31.7c-3,0-3.8,1.4-3.8,1.4H783l-7.1,8.9c0,0-4.7,0-6.5,0c-1.8,0-3.2,1.4-3.2,1.4h10.3l8.3-10.3h3.4
		l1.2-1.4C789.5,31.7,779.7,31.7,776.7,31.7z"/>
	<path class="st26" d="M776.6,31.4c-3.1,0-3.9,1.4-3.9,1.4h10.1l-7.1,8.9c0,0-4.6,0-6.4,0s-3.3,1.4-3.3,1.4h10.3l8.3-10.3h3.4
		l1.2-1.4C789.3,31.4,779.7,31.4,776.6,31.4z"/>
	<path class="st27" d="M776.6,31.2c-3.1,0-4,1.4-4,1.4h10.1l-7.1,8.9c0,0-4.4,0-6.3,0c-2,0-3.3,1.4-3.3,1.4h10.3l8.3-10.3h3.4
		l1.2-1.4C789.1,31.2,779.7,31.2,776.6,31.2z"/>
	<path class="st28" d="M776.5,30.9c-3.3,0-4.1,1.4-4.1,1.4h10.1l-7.1,8.9c0,0-4.2,0-6.3,0c-2,0-3.4,1.4-3.4,1.4H776l8.3-10.3h3.4
		l1.2-1.4C788.9,30.9,779.8,30.9,776.5,30.9z"/>
</g>
<path class="st29" d="M775.5,30.9c-1.9,0-3.1,1.4-3.1,1.4h10.1l-7.1,8.9c0,0-4,0-6.3,0c-2.2,0-3.4,1.4-3.4,1.4H776l8.3-10.3
	c0,0,0.5,0,1.5,0c1.6,0,3.1-1.4,3.1-1.4S777.4,30.9,775.5,30.9z"/>
</svg>
