<?xml version="1.0" encoding="utf-8"?>
<!-- Generator: Adobe Illustrator 19.2.1, SVG Export Plug-In . SVG Version: 6.00 Build 0)  -->
<!DOCTYPE svg PUBLIC "-//W3C//DTD SVG 1.1//EN" "http://www.w3.org/Graphics/SVG/1.1/DTD/svg11.dtd">
<svg version="1.1" id="圖層_1" xmlns="http://www.w3.org/2000/svg" xmlns:xlink="http://www.w3.org/1999/xlink" x="0px" y="0px"
	 viewBox="0 0 92.4 59.4" style="enable-background:new 0 0 92.4 59.4;" xml:space="preserve">
<style type="text/css">
	.st0{fill:#FFFFFF;}
</style>
<g id="XMLID_76_">
	<g id="XMLID_12_">
		<path id="XMLID_35_" class="st0" d="M39.6,58l2.2-4.5c0.1-0.2,0.2-0.4,0.2-0.6s0-0.4,0-0.6c0-0.1,0-0.2,0-0.4c0-0.1,0-0.2-0.1-0.3
			c0-0.1-0.1-0.2-0.2-0.2s-0.2-0.1-0.3-0.1c-0.2,0-0.3,0.1-0.4,0.2c-0.1,0.1-0.2,0.3-0.2,0.5v0.8h-1.2v-0.7c0-0.3,0-0.5,0.1-0.8
			c0.1-0.2,0.2-0.5,0.4-0.6c0.2-0.2,0.4-0.3,0.6-0.4s0.5-0.2,0.7-0.2c0.3,0,0.6,0.1,0.8,0.2c0.2,0.1,0.4,0.3,0.6,0.5
			s0.3,0.5,0.3,0.7s0.1,0.6,0.1,0.9c0,0.2,0,0.4,0,0.6s0,0.3,0,0.4c0,0.1-0.1,0.3-0.1,0.4c-0.1,0.1-0.1,0.3-0.2,0.5l-1.8,3.8h2.1
			v1.3h-3.6V58z"/>
		<path id="XMLID_32_" class="st0" d="M44,51.9c0-0.3,0-0.6,0.1-0.8s0.2-0.5,0.4-0.6c0.2-0.2,0.4-0.3,0.6-0.4
			c0.2-0.1,0.4-0.1,0.7-0.1c0.2,0,0.5,0,0.7,0.1s0.4,0.2,0.6,0.4c0.2,0.2,0.3,0.4,0.4,0.6c0.1,0.2,0.1,0.5,0.1,0.8v5.5
			c0,0.3,0,0.6-0.1,0.8c-0.1,0.2-0.2,0.5-0.4,0.6c-0.2,0.2-0.4,0.3-0.6,0.4c-0.2,0.1-0.4,0.1-0.7,0.1c-0.2,0-0.5,0-0.7-0.1
			s-0.4-0.2-0.6-0.4c-0.2-0.2-0.3-0.4-0.4-0.6C44,58,44,57.7,44,57.4V51.9z M45.2,57.4c0,0.2,0.1,0.3,0.2,0.5
			c0.1,0.1,0.3,0.2,0.4,0.2c0.2,0,0.3-0.1,0.4-0.2c0.1-0.1,0.2-0.3,0.2-0.5V52c0-0.2-0.1-0.3-0.2-0.5s-0.3-0.2-0.4-0.2
			c-0.2,0-0.3,0.1-0.4,0.2c-0.1,0.1-0.2,0.3-0.2,0.5V57.4z"/>
		<path id="XMLID_30_" class="st0" d="M49.8,51.4l-1.2,1V51l1.2-1H51v9.3h-1.2V51.4z"/>
		<path id="XMLID_27_" class="st0" d="M54.6,53.9L54.6,53.9c0.1,0,0.1,0,0.2-0.1c0.1,0,0.2,0,0.3,0c0.2,0,0.4,0.1,0.6,0.2
			c0.2,0.1,0.3,0.3,0.4,0.4c0.1,0.1,0.1,0.2,0.1,0.3s0.1,0.2,0.1,0.4s0,0.4,0,0.6s0,0.5,0,0.9c0,0.3,0,0.6,0,0.7s0,0.4,0,0.5
			s0,0.2-0.1,0.3c0,0.1-0.1,0.2-0.1,0.3c-0.2,0.3-0.4,0.5-0.6,0.7c-0.3,0.2-0.6,0.3-0.9,0.3s-0.6-0.1-0.9-0.2
			c-0.3-0.2-0.5-0.4-0.6-0.7C53,58.4,53,58.3,53,58.2c0-0.1-0.1-0.2-0.1-0.3c0-0.1,0-0.3,0-0.5s0-0.4,0-0.7c0-0.3,0-0.5,0-0.7
			s0-0.3,0-0.5c0-0.1,0-0.3,0.1-0.4c0-0.1,0.1-0.2,0.1-0.3l1.6-4.7H56L54.6,53.9z M55.2,55.7c0-0.2-0.1-0.4-0.2-0.5S54.7,55,54.6,55
			s-0.3,0.1-0.4,0.2S54,55.5,54,55.7v1.7c0,0.2,0.1,0.4,0.2,0.5c0.1,0.1,0.3,0.2,0.4,0.2s0.3-0.1,0.4-0.2c0.1-0.1,0.2-0.3,0.2-0.5
			V55.7z"/>
	</g>
	<g id="XMLID_23_">
		<rect id="XMLID_16_" x="38.5" y="43.6" class="st0" width="19" height="1"/>
	</g>
</g>
<g id="XMLID_1_">
	<g id="XMLID_13_">
		<polygon id="XMLID_14_" class="st0" points="20.5,35.2 0.2,35.2 1.8,33.2 19.5,33.2 45.6,0.4 47.1,1.6 		"/>
	</g>
	<g id="XMLID_10_">
		<polygon id="XMLID_11_" class="st0" points="50.5,13.5 53,13.6 35.8,34.9 33.3,34.8 		"/>
	</g>
	<g id="XMLID_8_">
		<polygon id="XMLID_9_" class="st0" points="53.7,9.5 56.2,9.5 54.5,11.7 52,11.7 		"/>
	</g>
	<g id="XMLID_6_">
		<polygon id="XMLID_7_" class="st0" points="51.9,34.8 49.3,34.8 66,14.3 61.7,14.3 63.3,12.3 70.2,12.3 		"/>
	</g>
	<g id="XMLID_4_">
		<polygon id="XMLID_5_" class="st0" points="85.3,35.2 70.4,35.2 85.4,14.8 76.5,14.8 63.2,20.5 63.2,18.3 76.1,12.8 89.3,12.8 
			74.4,33.2 87,33.2 		"/>
	</g>
	<g id="XMLID_2_">
		<polygon id="XMLID_3_" class="st0" points="21.1,0 57,0 55.3,2 19.5,2 		"/>
	</g>
</g>
</svg>
