<?xml version="1.0" encoding="utf-8"?>
<!-- Generator: Adobe Illustrator 19.0.0, SVG Export Plug-In . SVG Version: 6.00 Build 0)  -->
<svg version="1.1" id="圖層_1" xmlns="http://www.w3.org/2000/svg" xmlns:xlink="http://www.w3.org/1999/xlink" x="0px" y="0px"
	 viewBox="-269 260 302 75.3" style="enable-background:new -269 260 302 75.3;" xml:space="preserve">
<style type="text/css">
	.st0{fill:#FFFFFF;}
	.st1{fill:#6E6E6E;}
	.st2{fill:#A3A3A3;}
	.st3{fill:none;stroke:#A7A7A7;stroke-miterlimit:10;}
	.st4{fill:none;stroke:#D1D1D1;stroke-miterlimit:10;}
</style>
<g id="XMLID_76_">
	<g id="XMLID_54_">
		<polygon id="XMLID_22_" class="st0" points="-195.3,315.7 -216.2,315.7 -214.5,313.7 -196.3,313.7 -169.5,279.9 -167.9,281.2 		
			"/>
	</g>
	<g id="XMLID_75_">
		<polygon id="XMLID_21_" class="st0" points="-164.5,293.4 -161.9,293.5 -179.5,315.4 -182.1,315.3 		"/>
	</g>
	<g id="XMLID_77_">
		<polygon id="XMLID_20_" class="st0" points="-161.2,289.3 -158.6,289.3 -160.3,291.5 -162.9,291.5 		"/>
	</g>
	<g id="XMLID_72_">
		<polygon id="XMLID_19_" class="st0" points="-163,315.3 -165.7,315.3 -148.5,294.2 -152.9,294.2 -151.3,292.1 -144.2,292.1 		"/>
	</g>
	<g id="XMLID_79_">
		<polygon id="XMLID_18_" class="st0" points="-128.7,315.7 -144,315.7 -128.6,294.7 -137.7,294.7 -151.4,300.6 -151.4,298.3 
			-138.1,292.6 -124.6,292.6 -139.9,313.7 -127,313.7 		"/>
	</g>
	<g id="XMLID_73_">
		<polygon id="XMLID_17_" class="st0" points="-194.7,279.5 -157.8,279.5 -159.5,281.6 -196.3,281.6 		"/>
	</g>
</g>
<polygon class="st1" points="-283.3,340.1 -352.7,254.1 -283.3,168.1 -213.8,254.1 "/>
<polygon class="st2" points="-59.8,399.7 -107.9,340.1 -59.8,280.5 -11.7,340.1 "/>
<polyline class="st3" points="-88.5,178.7 -7.2,279.4 -88.5,380 "/>
<polygon class="st4" points="-88.5,286.7 -114.8,254.1 -88.5,221.5 -62.2,254.1 "/>
</svg>
