<?xml version="1.0" encoding="utf-8"?>
<!-- Generator: Adobe Illustrator 19.2.1, SVG Export Plug-In . SVG Version: 6.00 Build 0)  -->
<!DOCTYPE svg PUBLIC "-//W3C//DTD SVG 1.1//EN" "http://www.w3.org/Graphics/SVG/1.1/DTD/svg11.dtd">
<svg version="1.1" id="圖層_1" xmlns="http://www.w3.org/2000/svg" xmlns:xlink="http://www.w3.org/1999/xlink" x="0px" y="0px"
	 viewBox="0 0 302 75.3" style="enable-background:new 0 0 302 75.3;" xml:space="preserve">
<style type="text/css">
	.st0{fill:#2D2D2D;}
	.st1{fill:#E2E2E2;}
	.st2{fill:#EAEAEA;}
	.st3{fill:none;stroke:#A7A7A7;stroke-miterlimit:10;}
	.st4{fill:none;stroke:#D1D1D1;stroke-miterlimit:10;}
</style>
<g id="XMLID_76_">
	<g id="XMLID_54_">
		<polygon id="XMLID_22_" class="st0" points="73.7,55.7 52.8,55.7 54.5,53.7 72.7,53.7 99.5,19.9 101.1,21.2 		"/>
	</g>
	<g id="XMLID_75_">
		<polygon id="XMLID_21_" class="st0" points="104.5,33.4 107.1,33.5 89.5,55.4 86.9,55.3 		"/>
	</g>
	<g id="XMLID_77_">
		<polygon id="XMLID_20_" class="st0" points="107.8,29.3 110.4,29.3 108.7,31.5 106.1,31.5 		"/>
	</g>
	<g id="XMLID_72_">
		<polygon id="XMLID_19_" class="st0" points="106,55.3 103.3,55.3 120.5,34.2 116.1,34.2 117.7,32.1 124.8,32.1 		"/>
	</g>
	<g id="XMLID_79_">
		<polygon id="XMLID_18_" class="st0" points="140.3,55.7 125,55.7 140.4,34.7 131.3,34.7 117.6,40.6 117.6,38.3 130.9,32.6 
			144.4,32.6 129.1,53.7 142,53.7 		"/>
	</g>
	<g id="XMLID_73_">
		<polygon id="XMLID_17_" class="st0" points="74.3,19.5 111.2,19.5 109.5,21.6 72.7,21.6 		"/>
	</g>
</g>
<polygon class="st1" points="-14.3,80.1 -83.7,-5.9 -14.3,-91.9 55.2,-5.9 "/>
<polygon class="st2" points="209.2,139.7 161.1,80.1 209.2,20.5 257.3,80.1 "/>
<polyline class="st3" points="180.5,-81.3 261.8,19.4 180.5,120 "/>
<polygon class="st4" points="180.5,26.7 154.2,-5.9 180.5,-38.5 206.8,-5.9 "/>
</svg>
